<svg xmlns="http://www.w3.org/2000/svg" version="1.1" width="600px" height="600px" viewBox="0 0 200 200" style="overflow:hidden!important;"><g id="svga-group-wrapper"><g id="svga-group-backs-single"><path id="SvgjsPath10510" d="M0 0h200v200H0V0z" fill="#ecf0f1" stroke-width="none" opacity="1"></path></g><g id="svga-group-humanwrap-move" transform="matrix(1,0,0,1,0,0)"><g id="svga-group-humanwrap"><g id="svga-group-hair-back-move" transform="matrix(1,0,0,1,0,0)"><g id="svga-group-hair-back"></g></g><g id="svga-group-humanbody-back"><path id="SvgjsPath4894" d="M180.8 184.9c-2.3-3.4-38.9-17.8-38.9-17.8l-13.4-5.2-5.6-68.8H76.8L71.3 162l-13.4 5.2S21.4 181.6 19 185c-2.3 3.4-3.3 14.9-3.3 14.9V219h168.5v-19.2c-.1.1-1-11.5-3.4-14.9z" fill="#cb8d60" stroke-width="none" opacity="1" stroke="none"></path></g><g id="svga-group-chinshadow-single"><path id="SvgjsPath5178" d="M73.4 148.4c11.3 14.1 20.9 13.8 20.9 13.8s9.6.3 20.9-13.9c4.4-5.5 8-11.5 10.8-17.1l-3.1-38.1H76.8l-4.3 54.2c.3.3.6.7.9 1.1z" fill="#ac642f" stroke-width="none" opacity="1" stroke="none"></path></g><g id="svga-group-humanbody-front"><path id="SvgjsPath4895" d="M184.5 219c-.1-6.4-.1-12.8-.1-19.2l-.3-.1s.1-.1.2 0c.1 0 .1.1.1.1v-.4l-.1-.5-.1-.9-.2-1.9c-.2-1.3-.4-2.5-.6-3.8-.2-1.3-.5-2.5-.9-3.8-.4-1.2-.8-2.5-1.5-3.6-.8-.9-1.9-1.5-2.9-2.1-1-.6-2.1-1.1-3.2-1.7-2.1-1.1-4.3-2.1-6.5-3.1-4.4-2-8.7-3.9-13.1-5.7-4.4-1.9-8.8-3.7-13.2-5.5l-13-5.2-1.2-16.9c-.4-5.7-.9-11.5-1.3-17.2l-1.3-17.2-1.5-17.3-.1-.8h-.8c-7.7 0-15.4.1-23.1.1l-23.1.2h-.5v.5L75 110.2l-1.3 17.2c-.8 11.4-1.8 22.8-2.8 34.2-5.6 2.1-11.2 4.2-16.7 6.4-5.6 2.2-11.2 4.5-16.8 6.9-2.8 1.2-5.6 2.4-8.3 3.6-2.8 1.3-5.5 2.5-8.2 4.1-.7.4-1.3.8-2 1.4-.2.1-.4.4-.5.6l-.3.6c-.2.4-.4.7-.5 1.1-.6 1.5-1 3-1.3 4.5-.6 3-1.1 6-1.4 9.1l-.1 19.1v.9h.9l42.1.1H100c14 0 28.1-.1 42.1-.2l42.1-.5h.3v-.3zm-84.5-1-42.1-.1-41.2.1-.1-18.1c.3-3 .6-5.9 1.2-8.9.3-1.4.6-2.9 1.1-4.2.1-.3.3-.7.4-.9l.2-.4.3-.3c.5-.4 1.1-.8 1.8-1.2 2.5-1.5 5.3-2.8 8-4.1 2.7-1.3 5.5-2.5 8.2-3.7 5.5-2.4 11.1-4.8 16.7-7.1s11.2-4.5 16.9-6.7l.2-.1v-.2c.9-11.5 1.7-23 2.7-34.4l1.4-17.2 1.5-16.7 22.6.2c7.4.1 14.8.1 22.3.1l1.3 16.4 1.5 17.2c.5 5.7 1 11.5 1.5 17.2l1.6 17.2v.3l.3.1 13.4 5c4.4 1.7 8.9 3.4 13.3 5.2 4.4 1.8 8.8 3.7 13.2 5.6 2.2 1 4.3 2 6.5 3 1.1.5 2.1 1.1 3.2 1.6 1 .6 2.1 1.2 2.9 2 .7 1.1 1.1 2.3 1.4 3.5.3 1.2.6 2.5.8 3.7.2 1.3.4 2.5.6 3.8l.2 1.9.1.9.1.5v.4c0 6.3 0 12.6-.1 18.9l-41.8-.5c-14 .1-28.1 0-42.1 0z" fill="#9d521b" stroke-width="none" opacity="1" stroke="none"></path><path id="SvgjsPath4896" d="M125.1 142.4s-1.8 23-9.1 32.9c0 0 7.9-25 9.1-32.9zm-34.5 16s5 7.9 11.5 10.1c0 0-9.5 2.2-11.5-10.1zM73.4 140c6.7 25.6 6.7 25.6 8.5 30.7 0 0 .4-12.6-8.5-30.7z" fill="#ac642f" stroke-width="none" opacity="1" stroke="none"></path></g><g id="svga-group-clothes-single"><path id="SvgjsPath10788" d="m69.9 150.1-1.8.9s-1.4 2.9-2.4 5.1c-1 2.2-4.7 5.9-4.7 5.9s-.6 2.2-.6 2.9c0 0-12.3 4.2-15.9 5.6-3.6 1.4-19.2 6.3-21.3 6.4s-5.1 1.8-5.1 1.8-3 1.7-3.9 4.5c-1 2.8-2.6 34.4-2.6 36.8h175.9s-1.8-32.4-3.5-34.9c-.6-.9-.2-2.6-5.9-5.1s-17-7-20.8-8.5-19.3-7.2-19.3-7.2-.2-2.3-2.3-3.4c-2.1-1.1-5.3-9.8-5.3-9.8l-1.3-1.3s.4 5.1.2 9.6-4.7 11.7-7.9 13.8c-3.2 2.1-9 5.7-11.3 6.6s-2.8 3.4-3.8 5.9-2.6 5.9-2.6 5.9-3.6-4.5-5.3-7.6c-1.7-3.2-4-5.5-8.3-5.1-4.2.4-5.5-.9-7-1.7-1.5-.9-10.6-15.1-11.9-18.7-1.1-3.6-1.3-8.4-1.3-8.4z" fill="#335529" stroke-width="none" opacity="1" stroke="none"></path><path id="SvgjsPath10789" d="M188.3 220c-.4-6.9-.8-13.8-1.3-20.7-.3-3.5-.6-6.9-1.1-10.4-.1-.9-.3-1.7-.5-2.6-.1-.5-.2-.9-.5-1.5l-.1-.2-.1-.2-.3-.6c-.5-1-1.2-1.7-1.9-2.3-.8-.6-1.5-1-2.3-1.5-1.6-.9-3.2-1.4-4.8-2.1l-4.8-2-9.6-4c-6.2-2.5-15.8-5.4-21.9-8.3-.1-.6-.4-1.1-.7-1.6-.4-.7-1-1.3-1.7-1.7l-.3-.1c-.1-.1-.2-.1-.2-.1-.1-.1-.1-.1-.2-.1-.2-.2-.3-.3-.5-.6-.4-.4-.7-1-1-1.5-1.2-2.2-2.2-4.6-3.1-6.9l-.1-.2-.1-.1-1.3-1.3-1.9-1.9.2 2.8c.2 2.3.3 4.6.3 6.9v2.6l-.1.8c-.2 1-.5 2.1-.9 3.1-.8 2.1-2 4.1-3.3 5.9-.7.9-1.4 1.8-2.2 2.5-.4.4-.8.7-1.2 1-.4.3-.9.6-1.4.8-4.1 2.1-4.9 3.8-9.2 5.5-.6.2-1.3.6-1.8 1.1-.5.5-.9 1.1-1.2 1.6-.6 1.1-.9 2.3-1.3 3.3l-.9 2.1c-.5 1-.9 2-1.4 3-1.2-1.6-2.5-3.2-3.6-4.9-.3-.5-.6-1-.9-1.6-.3-.6-.7-1.1-1.1-1.7-.8-1.1-1.8-2.1-3-2.7-1.2-.7-2.6-.9-4-.9-.5.1-3.5.1-7.7-1.7-.5-.2-1.5-1.9-2.3-2.9-.7-1-1.5-2.1-2.2-3.1-1.4-2.1-2.8-4.2-4.1-6.4-.7-1.1-1.3-2.2-1.9-3.3-.6-1.1-1.1-2.1-1.4-3.4.1-1.6.4-4.6.5-5.7 0 0 .1-2.2.1-2.4-1.2-.1-3.2 1.1-3.9 1.4l-1.5 3c-.5 1-.9 2-1.5 2.9-.6.9-1.3 1.8-2 2.6s-1.5 1.6-2.3 2.4l-.1.1v.1c-.1.5-.2 1-.4 1.4-.1.4-.2.8-.2 1.3-3.2 1.4-9.4 2.7-12.6 4.1-3.2 1.4-6.6 2.4-10 3.5-3.4 1-6.8 2.1-10.1 3-.9.2-1.7.5-2.5.7l-1.2.3c-.2 0-.3.1-.6.1-.2 0-.5.1-.7.1-.9.2-1.8.5-2.7.8l-1.2.6-.6.3c-.3.1-.4.3-.6.4-1.5 1.1-2.9 2.5-3.6 4.4-.2.5-.3 1-.3 1.4l-.2 1.3-.3 2.7c-.3 3.5-.6 7.1-.8 10.6l-.7 10.6c-.2 3.6-.4 7-.5 10.6v.9h.9l22-.1 22-.2 22-.2 22-.1c7.3-.1 14.7 0 22 0s14.7 0 22 .1l44 .3h.8l-.3-1.2zm-68.2-44.9c.5-.3 1.1-.6 1.6-.9.5-.3 1.1-.7 1.5-1.2.9-.9 1.7-1.8 2.4-2.8 1.4-1.9 2.6-4 3.6-6.3.4-1.1.8-2.3 1-3.6l.1-1v-2.7c0-1 0-2-.1-3 .7 1.7 1.4 3.3 2.3 4.9.3.6.7 1.2 1.1 1.8.2.3.5.6.8.9.1.1.4.3.6.4l.4.2c.4.3.7.6 1 1 .2.4.4 1 .5 1.4l.1.6v.1c.5 2.7 1.1 5.3 1.7 8 .6 2.6 1.4 5.3 2.2 7.9l2.3 7.8 1.1 3.9c.2.8.5 1.7.7 2.5-1.4-.3-2.7-.7-3.9-1.4-.8-.5-1.4-1-2.3-1.7-.8-.6-1.6-1.3-2.5-1.8-1.7-1.2-3.5-2.2-5.4-3l-1.4-.6c-.4-.2-.9-.4-1.3-.6-.8-.5-1.6-1-2.4-1.6-.8-.6-1.5-1.2-2.2-1.9-.3-.4-.7-.7-.9-1.1-.2-.2-.3-.4-.4-.6l-.2-.3-.3-.4c-1.5-1.7-3.6-2.5-5.6-2.8-.3-.1-.7-.1-1-.1 1.8-.6 3.4-1.3 4.9-2zm-12.8 10.4c.9-2.2.5-4.6 6.9-7.5.9-.1 1.4 0 2.3.2 1.8.4 3.5 1.3 4.5 2.7l.2.2.2.3c.1.1.2.3.3.4 0 0-1.8 1.6-5.9 3.2-1.7.5-3.3.9-5 1.4-1.5.3-2.9.7-4.4.9l.9-1.8zm-4.5 6.1c-1.2 1.9-2.5 3.9-4 5.6l-.4.4c-1.7-3.4-5.1-8.9-6.2-10.7.5.1.9.1 1.4.1 1.9.1 3.8.1 5.7-.1 1.2 1.6 2.3 3.2 3.5 4.7zM91 179.5c1.2 0 2.3.2 3.3.8 1 .6 1.8 1.4 2.5 2.4.3.5.7 1 .9 1.6.3.6.6 1.1 1 1.7l.6.9c-1.9-.1-3.8-.3-5.6-.6-2-.3-4-.6-6-1s-6.6-2.2-8.4-2.7c.5-.6 1-1.1 1.5-1.7.6-.8 1.1-1.4 1.8-1.7.7-.3 1.6-.3 2.4-.3.1 0 5.4.6 6 .6zm-29.6-17.3c.8-.8 1.5-1.6 2.2-2.4.7-.9 1.4-1.7 2-2.7.6-1 .9-2 1.4-3l1.3-3c.5-.3 1-.6 1.6-.9v.8l.1.9c.1.6.1 1.3.2 1.9.2 1.3.4 2.5.7 3.8.3 1.2.9 2.4 1.5 3.6.6 1.1 1.2 2.2 1.8 3.4 1.3 2.2 2.6 4.4 3.9 6.5.7 1.1 1.4 2.1 2.1 3.2.8 1.1 1.4 2.1 2.4 3.1.3.3.6.5.9.6 0 0 .1 0 .1.1-.5 0-.9.1-1.4.2-.5.2-.9.5-1.3.8-.4.4-.6.7-.9 1l-1.9 1.9c-1.3 1.3-2.6 2.5-3.9 3.7-1.3 1.2-2.7 2.4-4 3.6-1.3 1.1-2.8 2.1-4.3 3.1-2.5 1.6-5.1 3.1-7.7 4.5.5-5.5 1-11 1.4-16.5l.7-9.1c.2-2 .3-3.9.5-5.9l.2-.1v-.2c0-.4.1-.9.2-1.4 0-.6.1-1.1.2-1.5zm-5.8 57.2-22-.2-21.1-.1c.3-6.7.6-13.5 1-20.2.2-3.5.4-7.1.8-10.6.1-.9.2-1.8.3-2.6l.2-1.3c0-.2.1-.4.1-.6.1-.2.1-.4.1-.6.5-1.4 1.7-2.7 3.1-3.6.2-.1.4-.2.5-.3l.6-.3c.4-.2.8-.4 1.2-.5.8-.3 1.6-.6 2.4-.8.2 0 .4-.1.6-.1l.7-.1c.5-.1.9-.2 1.3-.3.9-.2 1.7-.5 2.6-.7 3.4-1 6.8-2.1 10.1-3.2s6.8-2.2 10-3.7c3.1-1.4 9.2-2.8 12.3-4.2-.3 1.9-.6 3.7-.9 5.6-.5 3-1 6.1-1.3 9.1-.8 6.1-1.4 12.2-2.1 18.3l-.2 1.8 1.6-.8c3.3-1.6 6.4-3.4 9.5-5.4 1.5-1 3-2.1 4.4-3.4 1.3-1.2 2.7-2.5 3.9-3.8 1.3-1.3 2.6-2.6 3.8-3.9l.3-.3c3.6 1.7 4.4 2.8 8.2 3.6 1.2.2 2.4.4 3.5.6l-.1.1c.1.1 4.8 7.7 6.7 11.6-.1.1-.2.2-.2.4-.4.7-.6 1.5-.7 2.2-.1 1.4.1 2.7.2 3.9l.5 3.7.4 3.7c.2 2.4.5 4.9.9 7.3l-21.2-.1-22-.2zm43.3.3c.2-2.5.2-4.9.2-7.4.1-2.5 0-5.1-.3-7.6-.1-1.2-.2-2.5-.1-3.6.1-.5.2-1 .4-1.4.1-.2.3-.4.4-.6l.3-.3.4-.4c.9-1 1.7-2.1 2.4-3.1.7-1.1 1.3-2.2 2-3.3v-.1l.9-2.4.9-2c1.5.1 3.1-.1 4.6-.3.8-.1 1.5-.3 2.2-.4-1.5 2.6-6.5 11.1-7.8 12.9-1.3 1.8-1.1 3.3-.9 5 0 .4.1.8.1 1.3.1 2.1.8 11.5 1 13.6h-6.1l-.6.1zm22.7 0h-14.9c-.2-2-.9-11.6-1-13.7 0-.5-.1-.9-.1-1.3-.2-1.7-.3-2.9.8-4.4 1.5-2.1 6.3-10.5 6.6-10.9l1.6-2.8c1-.4 1.8-.8 3.4-1.5 2.2-1.2 2.8-1.8 3.9-3 0 .1.1.1.1.1.3.4.7.8 1 1.2.7.8 1.4 1.5 2.2 2.2.8.7 1.6 1.3 2.6 1.8.4.3.9.5 1.4.7l1.4.6c1.8.8 3.4 1.8 5 2.9.8.6 1.6 1.1 2.3 1.8.7.6 1.6 1.4 2.5 1.9 1.9 1.1 3.9 1.7 6.1 1.9l1.3.1-.3-1.3c-.3-1.4-.7-2.7-1.1-4l-1.2-3.9-2.5-7.8c-.8-2.6-1.7-5.1-2.5-7.7-.7-2.4-1.4-4.8-2-7.1 2.9 1.4 9.4 2.8 12.3 4.1 1.6.7 3.1 1.4 4.8 2.1l4.8 2 9.6 3.9 4.8 1.9c1.6.7 3.2 1.2 4.7 2 1.4.8 2.9 1.7 3.5 2.9.1.2.1.3.2.6 0 .1.1.2.2.4.1.1.2.3.2.3.1.1.2.6.3 1 .2.8.3 1.6.5 2.5.5 3.4.8 6.8 1.1 10.2.6 6.6 1.1 13.2 1.5 19.9l-43.2.3c-7.2 0-14.6 0-21.9.1zm-9.9-37.7c.8 0 1.5.7 1.5 1.5s-.7 1.5-1.5 1.5-1.5-.7-1.5-1.5.7-1.5 1.5-1.5zm-10.1 18.4c.8 0 1.5.7 1.5 1.5s-.7 1.5-1.5 1.5-1.5-.7-1.5-1.5.7-1.5 1.5-1.5zm-73.8-4.5c-.2-1.2-.5-2.6-.9-3.8-.4-1.2-.9-2.4-1.3-3.6-1-2.3-2-4.6-3.1-6.9l1.2 3.6 1.2 3.6 1.2 3.6c.4 1.2.6 2.4.8 3.6.4 2.5.6 5 .9 7.5l.4 3.8c.2 1.2.3 2.5.5 3.8 0-2.5 0-5.1-.2-7.6-.2-2.6-.4-5.1-.7-7.6zm150.5-9.2c-.5.6-.9 1.3-1.3 1.9-.8 1.3-1.5 2.7-2.2 4.1-1.4 2.8-2.6 5.7-3.6 8.6v.2c-.2 2.5-.3 5-.4 7.6-.1 2.5-.2 5-.2 7.6.4-2.5.7-5 .9-7.5.3-2.5.5-5 .7-7.5 1.1-2.9 2.2-5.7 3.4-8.6.6-1.4 1.2-2.8 1.9-4.2.7-1.4 1.4-2.8 2.5-3.8-.6.4-1.2 1-1.7 1.6z" fill="#18360f" stroke-width="none" opacity="1" stroke="none"></path><path id="SvgjsPath10790" d="M135.7 164.5c-.1 4.2.8 8.5 1.7 12.6.3 1.3 4.5 13.8 4.4 13.8 0 0-6.8-5.8-8.1-6.6-3.9-2.4-8.2-4.3-12.3-6.2-.3-.1-.5.3-.2.4 7.3 4 15.5 8.1 21.4 14.1.1.1.4 0 .4-.2-3.6-9.2-4.6-18.4-6.7-27.9-.2-.4-.6-.3-.6 0zm43.6 17.9c-5-2.4-10.5-3.8-15.7-5.7-6.6-2.4-16.5-5.3-22.9-8.2-.3-.2-.6.3-.3.5 5.1 3.5 14.5 5.8 20.3 8 5.9 2.2 12.2 4.8 18.4 6.1.3 0 .6-.5.2-.7zm-2.4 2.3c-2.5 2.6-4.7 5.8-5.6 9.2-.1.2.3.4.4.2 1.4-3.4 3-6.4 5.6-9 .1-.3-.2-.6-.4-.4zm6 2.1c0-.4-.6-.4-.6 0 .1 5.9.2 11.8.8 17.6 0 .4.6.4.6 0 .1-5.8-.3-11.8-.8-17.6zm-105-9.3c-6.2 5.9-13 11.3-19.1 17.2-.2.2.1.7.4.5 7.2-4.7 13.5-10.9 19.5-17 .3-.4-.4-1.1-.8-.7z" fill="#44643a" stroke-width="none" opacity="1" stroke="none"></path></g><g id="svga-group-head" transform="matrix(1,0,0,1,0,0)"><g id="svga-group-ears-left-move" transform="matrix(1,0,0,1,0,0)"><g id="svga-group-ears-left"><path id="SvgjsPath6100" d="M67.09 85.03s-3.12-7.36-5.69-9.71c-2.57-2.34-7.59-5.02-9.48-4.35-1.9.67 1.12 8.81 2.23 10.6 1.12 1.79 1.12 11.49 1.23 14.39.11 2.9 2.9 6.25 5.02 8.7 2.12 2.45 4.24-1.12 5.69-4.35 1.45-3.23 1-15.28 1-15.28z" fill="#cb8d60" stroke-width="none" opacity="1"></path><path id="SvgjsPath6101" d="M65.92 91.31c-.33-2.85-5.11-11.21-6.86-12.8-1.76-1.59-5.69-4.44-5.77-3.52s2.26 5.69 2.34 8.54.17 10.96 1.09 12.72c.92 1.76 5.69 1.51 6.53-.17s2.67-4.77 2.67-4.77z" fill="#bc7746" stroke-width="none" opacity="1"></path><path id="SvgjsPath6102" d="M51.07 71.79c-.11.94.06 1.79.25 2.64.4 1.69.98 3.31 1.62 4.9.33.79.68 1.58 1.11 2.33.35.72.47 1.6.59 2.43.22 1.69.26 3.4.32 5.11.04 1.71.03 3.42.05 5.13.03.85-.04 1.71.14 2.62.17.89.52 1.72.93 2.5.82 1.56 1.87 2.94 2.96 4.28.27.33.55.67.83.99.13.16.29.33.47.5.16.18.38.32.6.45.46.25 1.07.32 1.58.14.49-.19.88-.49 1.21-.81.66-.65 1.13-1.41 1.57-2.16.43-.76.81-1.54 1.15-2.34.63-1.74.72-3.45.84-5.17.17-3.44.07-6.86-.15-10.29-.62-1.62-1.31-3.18-2.08-4.71-.79-1.52-1.59-3.06-2.7-4.42-.56-.69-1.24-1.27-1.92-1.8-.69-.53-1.41-1.01-2.15-1.47-1.49-.89-3.07-1.66-4.83-2.01-.44-.07-.91-.11-1.4.01-.22.02-.56.2-.71.44-.18.22-.23.47-.28.71zm.56.1c.04-.18.1-.36.19-.47.1-.11.16-.15.37-.18.35-.08.75-.02 1.14.05 1.6.33 3.13 1.13 4.58 1.96.73.42 1.44.88 2.11 1.38.68.51 1.32 1.03 1.85 1.67 1.07 1.27 1.97 2.74 2.81 4.22.83 1.48 1.63 3.01 2.37 4.53-.03 3.41-.11 6.84-.4 10.23-.16 1.68-.34 3.42-.92 4.9-.73 1.51-1.47 3.09-2.59 4.22-.28.27-.59.49-.9.61-.31.1-.61.06-.9-.09-.55-.33-1.09-1.11-1.65-1.73-1.09-1.3-2.14-2.64-2.94-4.1-.4-.73-.72-1.5-.9-2.28-.17-.76-.15-1.64-.19-2.49-.06-1.71-.14-3.42-.25-5.13-.11-1.71-.25-3.42-.48-5.12-.14-.85-.25-1.71-.66-2.52-.43-.72-.75-1.52-1.07-2.31-.62-1.59-1.13-3.22-1.44-4.89-.14-.84-.26-1.7-.13-2.46z" fill="#bc7746" stroke-width="none" opacity="1"></path><path id="SvgjsPath6103" d="M57.38 80.46c.58 1.22 1.11 2.47 1.51 3.75.4 1.29.75 2.59 1.06 3.9.29 1.31.56 2.63.72 3.97l-.08.02c-.42-1.28-.8-2.56-1.2-3.84-.39-1.28-.78-2.56-1.2-3.82-.41-1.27-.78-2.55-1.24-3.8-.38-1.05-.84-2.1-1.49-3 .37 1.58.79 3.15 1.13 4.74.19.9.36 1.8.49 2.71.07.46.13.92.17 1.38.05.46.04.98.04 1.39.05 1.78.28 3.6.53 5.39.14.9.28 1.79.47 2.67.09.44.2.88.32 1.3.01.02.01.04.02.06.04-.85.09-1.71.11-2.56.04-1.28.1-2.55.06-3.83l.08-.01c.17 1.27.2 2.56.25 3.84.03 1.28.04 2.56.05 3.84v.8l-.52-.59c-.4-.46-.51-.9-.68-1.34-.15-.45-.28-.89-.39-1.34-.23-.9-.42-1.8-.58-2.71-.31-1.82-.56-3.63-.58-5.51.09-1.79-.24-3.58-.47-5.39-.26-1.8-.5-3.62-.9-5.4l-.12-.54.35.42c.88 1.08 1.49 2.29 2.09 3.5z" fill="#9d521b" stroke-width="none" opacity="1"></path></g></g><g id="svga-group-ears-right-move" transform="matrix(1,0,0,1,0,0)"><g id="svga-group-ears-right"><path id="SvgjsPath6104" d="M132.91 85.03s3.12-7.36 5.69-9.71c2.57-2.34 7.59-5.02 9.48-4.35s-1.12 8.81-2.23 10.6c-1.12 1.79-1.12 11.49-1.23 14.39-.11 2.9-2.9 6.25-5.02 8.7-2.12 2.45-4.24-1.12-5.69-4.35-1.45-3.23-1-15.28-1-15.28z" fill="#cb8d60" stroke-width="none" opacity="1"></path><path id="SvgjsPath6105" d="M134.08 91.31c.33-2.85 5.11-11.21 6.86-12.8 1.76-1.59 5.69-4.44 5.77-3.52.08.92-2.26 5.69-2.34 8.54s-.17 10.96-1.09 12.72c-.92 1.76-5.69 1.51-6.53-.17s-2.67-4.77-2.67-4.77z" fill="#bc7746" stroke-width="none" opacity="1"></path><path id="SvgjsPath6106" d="M148.66 71.07c-.15-.24-.49-.42-.71-.44-.49-.12-.96-.08-1.4-.01-1.76.35-3.34 1.12-4.83 2.01-.74.45-1.46.93-2.15 1.47-.68.53-1.36 1.1-1.92 1.8-1.11 1.36-1.91 2.9-2.7 4.42-.77 1.54-1.46 3.1-2.08 4.71-.23 3.43-.33 6.85-.15 10.29.12 1.72.22 3.44.84 5.17.34.79.72 1.58 1.15 2.34.44.76.91 1.51 1.57 2.16.33.32.72.62 1.21.81.51.18 1.11.11 1.58-.14.22-.14.44-.27.6-.45.18-.17.34-.34.47-.5.28-.32.55-.66.83-.99 1.09-1.34 2.14-2.72 2.96-4.28.4-.78.75-1.61.93-2.5.17-.92.11-1.77.14-2.62.02-1.71.01-3.42.05-5.13.05-1.71.1-3.42.32-5.11.12-.83.23-1.71.59-2.43.43-.76.78-1.54 1.11-2.33.64-1.59 1.21-3.21 1.62-4.9.18-.85.36-1.7.25-2.64-.06-.23-.11-.48-.28-.71zm-.42 3.27c-.31 1.66-.82 3.3-1.44 4.89-.32.79-.63 1.59-1.07 2.31-.41.81-.52 1.67-.66 2.52-.22 1.7-.37 3.41-.48 5.12-.11 1.71-.2 3.42-.25 5.13-.05.85-.02 1.73-.19 2.49-.18.79-.5 1.55-.9 2.28-.8 1.46-1.85 2.8-2.94 4.1-.56.62-1.1 1.4-1.65 1.73-.29.15-.59.19-.9.09-.31-.12-.62-.34-.9-.61-1.12-1.13-1.86-2.71-2.59-4.22-.58-1.47-.76-3.22-.92-4.9-.29-3.39-.37-6.82-.4-10.23.74-1.52 1.54-3.05 2.37-4.53.84-1.48 1.73-2.95 2.81-4.22.53-.63 1.17-1.16 1.85-1.67.67-.5 1.39-.96 2.11-1.38 1.45-.83 2.98-1.63 4.58-1.96.39-.07.8-.12 1.14-.05.21.03.27.07.37.18.09.11.15.29.19.47.13.77.01 1.63-.13 2.46z" fill="#bc7746" stroke-width="none" opacity="1"></path><path id="SvgjsPath6107" d="M142.62 80.46c-.58 1.22-1.11 2.47-1.51 3.75-.4 1.29-.75 2.59-1.06 3.9-.29 1.31-.56 2.63-.72 3.97l.08.02c.42-1.28.8-2.56 1.2-3.84.39-1.28.78-2.56 1.2-3.82.41-1.27.78-2.55 1.24-3.8.38-1.05.84-2.1 1.49-3-.37 1.58-.79 3.15-1.13 4.74-.19.9-.36 1.8-.49 2.71-.07.46-.13.92-.17 1.38-.05.46-.04.98-.04 1.39-.05 1.78-.28 3.6-.53 5.39-.14.9-.28 1.79-.47 2.67-.09.44-.2.88-.32 1.3-.01.02-.01.04-.02.06-.04-.85-.09-1.71-.11-2.56-.04-1.28-.1-2.55-.06-3.83l-.08-.01c-.17 1.27-.2 2.56-.25 3.84-.03 1.28-.04 2.56-.05 3.84v.8l.52-.59c.4-.46.51-.9.68-1.34.15-.45.28-.89.39-1.34.23-.9.42-1.8.58-2.71.31-1.82.56-3.63.58-5.51-.09-1.79.24-3.58.47-5.39.26-1.8.5-3.62.9-5.4l.12-.54-.35.42c-.88 1.08-1.49 2.29-2.09 3.5z" fill="#9d521b" stroke-width="none" opacity="1"></path></g></g><g id="svga-group-faceshape-wrap"><g id="svga-group-faceshape-single"><path id="SvgjsPath5168" d="M140.4 54.9c-2.2-10-6.3-16-15.2-20.8-9.3-5-25.2-4.8-25.2-4.8s-15.9-.2-25.2 4.8c-8.8 4.8-13 10.8-15.2 20.8-.9 4 0 13.6 0 13.6s1.2 11.9 1.2 15.3-.6 9.6.2 16.4 6.8 23.5 18.1 37.6 20.9 13.8 20.9 13.8 9.6.3 20.9-13.8 17.3-30.9 18.1-37.6c.8-6.8.2-13 .2-16.4s1.2-15.3 1.2-15.3c-.1-.1.9-9.6 0-13.6z" fill="#cb8d60" stroke-width="none" opacity="1" stroke="none"></path><path id="SvgjsPath5169" d="M140.4 54.9c-2.2-10-6.3-16-15.2-20.8-9.3-5-25.2-4.8-25.2-4.8s-15.9-.2-25.2 4.8c-8.8 4.8-13 10.8-15.2 20.8-.9 4 0 13.6 0 13.6s1.2 11.9 1.2 15.3-.6 9.6.2 16.4 6.8 23.5 18.1 37.6 20.9 13.8 20.9 13.8 9.6.3 20.9-13.8 17.3-30.9 18.1-37.6c.8-6.8.2-13 .2-16.4s1.2-15.3 1.2-15.3c-.1-.1.9-9.6 0-13.6zm0 10.1c-.1 1.1-.2 2.2-.3 3.4l-.5 4.9c-.2 1.6-.4 3.3-.5 4.9-.2 1.7-.3 3.3-.4 5-.1 1.7 0 3.3 0 5 0 3.3-.1 6.6-.4 9.8 0 .4-.1.8-.1 1.2l-.1.6-.1.6c-.1.8-.3 1.6-.5 2.3-.4 1.6-.9 3.1-1.4 4.7-1.1 3.1-2.3 6.1-3.7 9.1s-2.9 5.9-4.6 8.7c-.4.7-.8 1.4-1.3 2.1-.4.7-.8 1.4-1.3 2.1l-1.4 2-1.4 2c-.5.7-1 1.3-1.5 2l-.7 1-.4.5-.4.5-1.6 1.9c-.5.6-1.1 1.2-1.7 1.8-2.3 2.3-4.7 4.4-7.4 6.1-1.4.8-2.7 1.6-4.2 2.1-.7.3-1.5.5-2.2.7s-1.5.3-2.2.4c-.6 0-1.4-.1-2.1-.2-.7-.2-1.5-.4-2.2-.6-1.5-.5-2.9-1.2-4.3-2-2.8-1.6-5.3-3.7-7.6-5.9-2.3-2.3-4.4-4.8-6.3-7.4-2-2.6-3.8-5.4-5.5-8.1-1.7-2.8-3.3-5.7-4.7-8.7-1.4-3-2.7-6-3.8-9.1-.3-.8-.5-1.6-.8-2.3l-.4-1.2-.3-1.2-.3-1.2c-.1-.4-.2-.8-.2-1.2-.1-.4-.1-.8-.2-1.2l-.1-1.2c-.3-3.3-.4-6.6-.3-9.9 0-1.7.1-3.3.1-5s-.1-3.3-.3-5c-.2-3.3-.5-6.6-.8-9.9s-.4-6.6-.3-9.9c0-.8.1-1.6.2-2.4.1-.8.2-1.5.5-2.3.4-1.6.9-3.1 1.5-4.7 1.2-3 2.8-5.8 4.9-8.2.5-.6 1.1-1.1 1.7-1.7.6-.5 1.2-1 1.9-1.5.6-.5 1.3-.9 2-1.4.7-.4 1.4-.9 2.1-1.2.4-.2.7-.4 1.1-.6l1.1-.5.5-.3.6-.2 1.1-.4c.4-.1.8-.3 1.1-.4.4-.1.8-.3 1.1-.4l1.2-.3 1.2-.3c3.2-.7 6.4-1.2 9.6-1.5 1.6-.1 3.3-.3 4.9-.3.8 0 1.6-.1 2.4-.1h2.4c3.3.1 6.5.3 9.8.7 3.2.4 6.5 1.1 9.5 2.2.4.1.8.3 1.1.4l1.1.5.6.3.5.3 1.1.6c1.4.8 2.8 1.7 4.1 2.7s2.5 2.2 3.5 3.4c1.1 1.3 2 2.6 2.8 4.1 1.6 2.9 2.5 6.1 3.3 9.3.2 1.1.3 2.2.3 3.4v3.4c0 1 0 2.1-.1 3.2z" fill="#9d521b" stroke-width="none" opacity="1" stroke="none"></path></g></g><g id="svga-group-mouth-single-move" transform="matrix(1,0,0,1,0,0)"><g id="svga-group-mouth-single"><path id="SvgjsPath5824" d="M88.64 129.04s3.92 4.45 11.7 5.26 12.4-6.49 12.4-6.49-2.95 7.35-11.7 7.67-12.08-5.85-12.4-6.44z" fill="#ac642f" stroke-width="none" opacity="1" stroke="none"></path><path id="SvgjsPath5825" d="M86.4 126s2.7.4 4.5-1 4.6-4 5.5-5.5c.9-1.6 1.1 1.1 3.7 2s3.5-1.7 4-2.2 3.7 5.6 6.1 6.5c2.3.9 4.1 1.1 4.1 1.1s-2.4 1.6-6.1.7c-3.4-.8-5.6-1.9-7.2-1.8-1.5.1-5.2 1.7-8.5 1.4-3.2-.2-4.9-.5-6.1-1.2z" fill="#9d6d5f" stroke-width="none" opacity="1" stroke="none"></path><path id="SvgjsPath5826" d="M115.6 126.5c-1.3.1-2.4.7-3.8.8-1.3.1-2.6 0-3.8-.3-2.4-.5-4.6-1.5-7-1.4-2.5 0-4.8.9-7.3 1.1-2.7.2-5.5-.2-8-1.1-.3-.1-.6.4-.3.5 2.2 1.1 4.7 1.7 7.3 1.8 2.9.1 5.5-.9 8.3-1s5.4 1 8.2 1.3c2.1.2 5 .1 6.6-1.1.2-.3.1-.7-.2-.6z" fill="#8e5748" stroke-width="none" opacity="1" stroke="none"></path></g></g><g id="svga-group-eyes-left-move" transform="matrix(1,0,0,1,0,0)"><g id="svga-group-eyes-left"><g id="svga-group-eyesback-left"><path id="SvgjsPath6932" d="M80.2 74.2c7.5 0 13.5 5.8 13.5 13s-6 13-13.5 13-13.5-5.8-13.5-13 6-13 13.5-13z" fill="#ffffff" stroke-width="none" opacity="1"></path></g><g id="svga-group-eyesiriswrapper-left" transform="matrix(1,0,0,1,0,0)"><g id="svga-group-eyesiriscontrol-left" transform="matrix(1,0,0,1,0,0)"><g id="svga-group-eyesiris-left"><path id="SvgjsPath7403" d="M80.2 81.9c2.9 0 5.3 2.4 5.3 5.3s-2.4 5.3-5.3 5.3-5.3-2.4-5.3-5.3 2.4-5.3 5.3-5.3z" fill="#681711" stroke-width="none" opacity="1" stroke="none"></path><path id="SvgjsPath7404" d="M80.2 81.6c-3.1 0-5.6 2.5-5.6 5.6s2.5 5.6 5.6 5.6 5.6-2.5 5.6-5.6c0-3-2.5-5.6-5.6-5.6zm4.7 7.5c-.6-.3-1.2-.6-1.8-.8.1-.2.2-.5.2-.8.6.1 1.3.1 1.9.1 0 .6-.1 1.1-.3 1.5zm-.4.7c-.5-.4-1.1-.8-1.7-1.1 0-.1.1-.1.1-.2.6.3 1.2.6 1.8.8 0 .2-.1.3-.2.5zm.1-5c-.6.1-1.3.4-1.8.8 0-.1-.1-.1-.1-.2.2-.2.5-.3.7-.5.3-.2.6-.5.9-.7l.3.6zm.3.8c-.6.1-1.3.3-1.9.6 0-.1-.1-.2-.1-.3.3-.1.6-.3.9-.4s.6-.2.9-.4c.1.1.2.3.2.5zm-1.6 1.6c0-.3 0-.6-.1-.8.6-.1 1.3-.3 1.9-.5.1.4.2.9.2 1.3h-2zm.8-3.2c-.3.2-.6.5-.9.7-.2.2-.4.3-.7.5l-.3-.3c.4-.5.8-1.1 1.1-1.6.3.2.5.5.8.7zm-3.6 6.3c.2 0 .4-.1.7-.2.1.3.3.7.4 1s.2.6.4.8c-.4.2-.9.3-1.4.3 0-.6 0-1.3-.1-1.9zm1.4-7.8c.4.2.9.4 1.2.6-.4.5-.8 1-1.2 1.6-.1-.1-.2-.1-.3-.2.2-.7.3-1.4.3-2zm-1.5-.3c.4 0 .8.1 1.1.2-.1.5-.1 1-.2 1.5 0 .2-.1.3-.1.5-.2-.1-.4-.1-.6-.1.1-.8 0-1.5-.2-2.1zm1.5 8.8c-.2-.3-.3-.7-.5-1 .1 0 .1-.1.2-.1.1.3.3.6.5.9.1.3.3.6.5.8-.1.1-.2.1-.3.2-.1-.3-.2-.5-.4-.8zm.5-.3c-.2-.3-.3-.6-.5-.8.1-.1.2-.1.3-.2.3.6.7 1.1 1.2 1.6-.1.1-.3.2-.4.3-.2-.4-.5-.7-.6-.9zm-2.1-8.5c-.1.6-.1 1.3-.1 2h-.4c0-.2-.1-.4-.1-.6-.1-.4-.1-.9-.2-1.3.2 0 .4-.1.6-.1h.2zm-2.7.7c.3.6.6 1.2 1.1 1.7-.1.1-.2.1-.2.2-.1-.1-.2-.3-.3-.4-.3-.4-.6-.8-.9-1.1 0-.2.2-.3.3-.4zm2 1.3c-.1 0-.2 0-.2.1-.2-.6-.4-1.3-.6-1.9.2-.1.4-.1.6-.2-.1.7 0 1.4.2 2zm-.6.2s-.1 0 0 0l-1.2-1.5c.2-.1.5-.2.7-.3.2.5.3 1.2.5 1.8zm-.4 5.5c.1 0 .1.1.2.1-.1.2-.2.3-.2.4-.2.4-.4.9-.6 1.3l-.6-.3c.3-.3.5-.6.8-.9.1-.2.3-.4.4-.6zm.3.6c.1-.1.1-.3.2-.4h.1c-.3.6-.4 1.2-.6 1.9-.2-.1-.3-.1-.5-.2.4-.4.6-.9.8-1.3zm.7-.3c.1 0 .2 0 .3.1-.2.6-.2 1.3-.3 1.9-.2 0-.5-.1-.7-.1.2-.6.5-1.2.7-1.9zM77 83.4c.2.4.5.7.8 1 .1.2.3.4.4.5l-.4.4c-.5-.4-1.1-.8-1.6-1.1.2-.3.5-.6.8-.8zm-1.2 6.3 1.5-.9c.1 0 .1-.1.2-.1.1.1.2.3.3.4-.5.4-.9.9-1.4 1.4-.2-.2-.4-.5-.6-.8zm-.4-1.1c.4-.1.8-.2 1.1-.4.2-.1.5-.2.7-.3 0 .2.1.3.1.5-.1.1-.2.1-.3.2-.5.3-.9.6-1.3.9l-.3-.9zm-.2-1.4c0-.2 0-.3.1-.5.6.2 1.3.3 1.9.3v.5c-.3.1-.6.2-.9.4s-.7.2-.9.4c-.2-.4-.2-.7-.2-1.1zm.2-1.5c.4.2.9.4 1.3.6.2.1.3.2.5.2 0 .1 0 .2-.1.3-.2 0-.3-.1-.5-.1-.5-.1-1-.2-1.4-.1.1-.4.1-.7.2-.9zm.7-1.4c.5.4 1 .9 1.6 1.2-.1.2-.2.3-.3.5H77l-1.5-.6c.2-.4.3-.7.6-1.1zm.4 6.4c.5-.4 1-.8 1.5-1.3l.3.3c-.2.2-.3.4-.4.6-.2.3-.5.7-.7 1-.3-.2-.5-.4-.7-.6zm3.4 1.5c.1-.7.2-1.3.2-2h.2c-.1.6-.1 1.3 0 2h-.1c-.1.1-.2 0-.3 0zm3.7-1.2c-.4-.5-.9-1-1.3-1.5.2-.2.4-.4.5-.6.5.4 1.1.8 1.6 1.1-.2.4-.5.7-.8 1z" fill="#490500" stroke-width="none" opacity="1" stroke="none"></path><path id="SvgjsPath7405" d="M80.2 84.3c1.6 0 2.9 1.3 2.9 2.9s-1.3 2.9-2.9 2.9-2.9-1.3-2.9-2.9 1.3-2.9 2.9-2.9z" fill="#000000" stroke-width="none" opacity="1"></path><path id="SvgjsPath7406" d="M78.6 84.7c.6 0 1.1.5 1.1 1.1s-.5 1.2-1.1 1.2-1.1-.5-1.1-1.1.5-1.2 1.1-1.2zm3.5 4.1c.3 0 .6.3.6.6s-.2.6-.6.6-.6-.3-.6-.6.3-.6.6-.6z" fill="#ffffff" stroke-width="none" opacity="1"></path></g></g></g><g id="svga-group-eyesfront-left"><path id="SvgjsPath6940" d="M80.2 73.7c-7.8 0-14.1 6.1-14.1 13.6s6.3 13.6 14.1 13.6 14.1-6.1 14.1-13.6S88 73.7 80.2 73.7zm-4.9 20.2c-4.8-1.7-6.4-6.7-7.2-10.1-.9-3.5 13.8-3.5 17.5-.4 3.8 3 5.3 7.3 5.5 9.6.1-.1-11 2.6-15.8.9z" fill="#cb8d60" stroke-width="none" opacity="1"></path><path id="SvgjsPath6941" d="M91.1 92.5c-.1-.5-.1-1-.3-1.4l-.3-.9c-.5-1.9-1.5-4.5-3-6.2-1.2-1.3-4.1-4.4-9-4.4s-8.2 1.6-8.8 1.9c-.2.1-.5.3-.7.5-.4.2-.8.5-1.1 1-.1.2-.1.3-.1.5-.1.1-.1.2-.1.2h.1c0 .1 0 .3.1.4.1.3.2.6.2.9l.6 1.8c.4 1.2.9 2.3 1.6 3.4.7 1.1 1.5 2 2.5 2.8s2.2 1.3 3.4 1.6c2.5.5 5 .3 7.5 0s4.9-.8 7.3-1.5c.2-.2.2-.4.1-.6zm0 .4c-2.4.4-4.9.8-7.3 1.1-1.2.1-2.5.2-3.7.2-1.2 0-2.5 0-3.7-.2-2.4-.4-4.6-1.9-5.8-4-.7-1-1.2-2.2-1.6-3.3-.2-.6-.4-1.2-.5-1.8-.1-.3-.2-.6-.2-.9 0-.2-.1-.3-.1-.4 1.4-.4 6.6-1.9 10.5-1.9 4.5.1 7.9 3.6 9.3 5.1 1.2 1.1 3 5.1 3.1 6.1z" fill="#000000" stroke-width="none" opacity="1"></path></g></g></g><g id="svga-group-eyes-right-move" transform="matrix(1,0,0,1,0,0)"><g id="svga-group-eyes-right"><g id="svga-group-eyesback-right"><path id="SvgjsPath6933" d="M119.8 74.2c7.5 0 13.5 5.8 13.5 13s-6 13-13.5 13-13.5-5.8-13.5-13 6-13 13.5-13z" fill="#ffffff" stroke-width="none" opacity="1"></path></g><g id="svga-group-eyesiriswrapper-right" transform="matrix(1,0,0,1,0,0)"><g id="svga-group-eyesiriscontrol-right" transform="matrix(1,0,0,1,0,0)"><g id="svga-group-eyesiris-right"><path id="SvgjsPath7407" d="M119.8 82.5c2.6 0 4.7 2.1 4.7 4.7s-2.1 4.7-4.7 4.7-4.7-2.1-4.7-4.7 2.1-4.7 4.7-4.7z" fill="#681711" stroke-width="none" opacity="1" stroke="none"></path><path id="SvgjsPath7408" d="M119.8 82.3c-2.7 0-4.9 2.2-4.9 4.9s2.2 4.9 4.9 4.9 4.9-2.2 4.9-4.9-2.2-4.9-4.9-4.9zm4.1 6.6c-.5-.3-1.1-.5-1.6-.7.1-.2.1-.4.2-.7.6.1 1.2.1 1.7.1-.1.4-.1.9-.3 1.3zm-.3.5c-.4-.3-.9-.7-1.4-.9 0-.1.1-.1.1-.2.5.3 1 .5 1.6.7-.2.2-.2.3-.3.4zm.1-4.3c-.5.1-1.1.4-1.6.7 0-.1-.1-.1-.1-.2.2-.1.4-.3.6-.4.3-.2.5-.4.8-.6 0 .2.2.3.3.5zm.2.7c-.6.1-1.1.3-1.6.5 0-.1-.1-.2-.1-.3.3-.1.5-.2.8-.3.3-.1.6-.2.8-.3 0 .1.1.2.1.4zm-1.4 1.4c0-.2 0-.5-.1-.7.6-.1 1.1-.2 1.7-.4.1.4.2.8.2 1.2-.6-.1-1.2-.1-1.8-.1zm.7-2.8c-.3.2-.5.4-.8.6-.2.1-.4.3-.6.4l-.3-.3c.4-.4.7-.9 1-1.4l.7.7zm-3.1 5.5c.2 0 .4-.1.6-.1.1.3.2.6.4.9.1.2.2.5.3.7-.4.2-.8.2-1.2.3 0-.7 0-1.2-.1-1.8zm1.2-6.8c.4.1.8.3 1.1.6-.4.4-.7.9-1 1.4-.1-.1-.2-.1-.3-.2.1-.6.2-1.3.2-1.8zm-1.3-.3c.3 0 .7.1 1 .2-.1.4-.1.9-.2 1.3 0 .1-.1.3-.1.4-.2-.1-.3-.1-.5-.1 0-.6-.1-1.2-.2-1.8zm1.3 7.8c-.1-.3-.3-.6-.4-.9.1 0 .1-.1.2-.1.1.3.3.5.4.8.1.2.2.5.4.7-.1 0-.2.1-.2.1-.1-.2-.3-.4-.4-.6zm.4-.4c-.2-.2-.3-.5-.5-.7.1-.1.2-.1.3-.2.3.5.6.9 1 1.4-.1.1-.2.2-.4.3-.1-.3-.3-.6-.4-.8zm-1.8-7.4c-.1.6-.1 1.1 0 1.7h-.4c0-.2-.1-.3-.1-.5-.1-.4-.1-.8-.2-1.2h.7c-.1 0 0 0 0 0zm-.7 1.8c-.1 0-.1 0-.2.1-.1-.6-.3-1.1-.5-1.6.2-.1.4-.1.6-.1-.1.4 0 1 .1 1.6zm-.4.1c0 .1-.1.1 0 0-.3-.5-.7-.9-1.1-1.4l.6-.3c.1.6.3 1.2.5 1.7zm-.3.2c-.1 0-.2.1-.2.1-.1-.1-.2-.2-.3-.4-.3-.3-.5-.7-.8-.9.1-.1.3-.2.4-.3.2.5.5 1.1.9 1.5zm-.1 4.6c.1 0 .1.1 0 0 0 .2 0 .4-.1.5-.2.4-.4.8-.5 1.2-.2-.1-.4-.2-.5-.3.2-.3.5-.6.7-.8.1-.2.3-.4.4-.6zm.3.6c.1-.1.1-.2.2-.3h.1c-.2.5-.4 1.1-.5 1.6-.1-.1-.3-.1-.4-.1l.6-1.2zm.5-.3h.3c-.2.5-.2 1.1-.2 1.7-.2 0-.4-.1-.6-.1.2-.5.4-1 .5-1.6zm-2.2-5.9c.2.3.4.6.7.9.1.2.2.3.4.5l-.3.3c-.4-.4-.9-.7-1.4-1 .1-.3.3-.5.6-.7zm-1 5.5c.4-.2.9-.5 1.3-.8.1 0 .1-.1.2-.1.1.1.1.2.2.3l-1.2 1.2c-.2-.1-.4-.3-.5-.6zm-.4-1c.3-.1.7-.2 1-.3l.6-.3c0 .1.1.3.1.4-.1.1-.2.1-.3.2-.4.3-.8.5-1.2.8 0-.2-.1-.5-.2-.8zm-.2-1.2v-.4c.5.2 1.1.2 1.7.3v.4c-.3.1-.5.2-.8.3-.3.1-.6.2-.8.3-.1-.3-.1-.6-.1-.9zm.2-1.4c.4.2.8.3 1.1.5.1.1.3.1.4.2 0 .1 0 .2-.1.2-.2 0-.3 0-.4-.1-.4-.1-.8-.1-1.3-.1.2-.2.2-.4.3-.7zm.6-1.1c.4.4.9.8 1.4 1.1-.1.1-.2.3-.2.4-.1 0-.2-.1-.3-.1-.4-.2-.9-.4-1.3-.5 0-.3.2-.6.4-.9zm.4 5.5c.4-.4.9-.7 1.3-1.2l.3.3c-.1.2-.3.3-.4.5l-.6.9c-.2-.1-.4-.3-.6-.5zm3 1.4c.1-.6.2-1.2.1-1.7h.2c-.1.6-.1 1.2 0 1.7H119.6zm3.1-1.1c-.4-.4-.8-.8-1.1-1.3.2-.2.3-.3.4-.5.5.3.9.7 1.4 1-.1.3-.4.5-.7.8z" fill="#490500" stroke-width="none" opacity="1" stroke="none"></path><path id="SvgjsPath7409" d="M119.8 84.7c1.4 0 2.5 1.1 2.5 2.5s-1.1 2.5-2.5 2.5-2.5-1.1-2.5-2.5 1.1-2.5 2.5-2.5z" fill="#000000" stroke-width="none" opacity="1"></path><path id="SvgjsPath7410" d="M118.4 85c.5 0 1 .4 1 1s-.4 1-1 1-1-.4-1-1 .4-1 1-1zm3.1 3.6c.3 0 .5.2.5.5s-.2.5-.5.5-.5-.2-.5-.5.2-.5.5-.5z" fill="#ffffff" stroke-width="none" opacity="1"></path></g></g></g><g id="svga-group-eyesfront-right"><path id="SvgjsPath6942" d="M119.8 73.7c-7.8 0-14.1 6.1-14.1 13.6s6.3 13.6 14.1 13.6 14.1-6.1 14.1-13.6-6.3-13.6-14.1-13.6zm5.3 19.5c-4.4 1.8-15 .1-15 .1.1-1.9 1.3-5.8 4.7-8.7 3.4-2.9 17.2-3.8 16.6-.7-.7 3.1-1.9 7.6-6.3 9.3z" fill="#cb8d60" stroke-width="none" opacity="1"></path><path id="SvgjsPath6945" d="M131.6 84.1s0-1.3-.9-1.7c-.6-.2-4.4-1-9.1-.7-2.6.2-4.6 1.1-6.1 2.1-.3.2-.6.3-.8.5-.9.8-1.7 1.6-2.4 2.6-1.3 1.9-2.3 4.1-2.3 6.4 0 .3.1.8.1.8s.1-.3.2-.7c2.2.4 4.3.7 6.6.8 1.2.1 2.3.1 3.4.1 1.2 0 2.3-.2 3.4-.4s2.2-.8 3.2-1.4c.9-.7 1.7-1.6 2.4-2.5.6-1 1.1-2 1.5-3.1.2-.5.3-1.1.5-1.7l.2-.8c0-.1 0-.1.1-.2v-.1zm-.4.1-.2.8c-.1.6-.3 1.1-.4 1.7-.4 1.1-.8 2.1-1.4 3.1-1.2 1.9-3.3 3.2-5.5 3.6-.6.1-1.1.2-1.7.3-.6 0-1.1.1-1.7.1-1.1.1-2.3.1-3.4 0-2.2-.1-4.4-.2-6.6-.4.4-1.5 1.5-4.6 2.4-5.7 1.2-1.5 4.2-4.5 8.5-4.9 3.6-.3 8.6.8 10 1.2v.2z" fill="#000000" stroke-width="none" opacity="1"></path></g></g></g><g id="svga-group-facehighlight-single"></g><g id="svga-group-eyebrows-left-move" transform="matrix(1,0,0,1,0,0)"><g id="svga-group-eyebrows-left-rotate" transform="matrix(1,1.7453292519943295e-9,-1.7453292519943295e-9,1,1.2391838311032188e-7,-1.3753196981269866e-7)"><g id="svga-group-eyebrows-left"><path id="SvgjsPath4762" d="M92.8 69.5s-.2 3.9-1 7.1c0 0-16.1-4.6-18-4.8-1.9-.2-8.4 4.1-8.4 4.1l6.5-9.8 3.8.3-.6-.9 8 1.9 7.5 1.2.5 2.8.4-2.8.5 2.8.8-1.9z" fill="#2a232b" stroke-width="none" opacity="1"></path><path id="SvgjsPath4763" d="m92.8 69.5-.1.1c-.1.3-.2.5-.4.8-.1.2-.2.4-.3.7l-.4-2.5-.2-.9-.2.9-.3 1.6-.3-1.6v-.2h-.2l-3.9-.7-1.9-.3c-.6-.1-1.3-.2-1.9-.3-2.6-.6-5.1-1.2-7.7-1.8l-.8-.2.5.8.3.1-3.1-.2h-.2l-.1.1c-1.1 1.7-2.1 3.3-3.2 5l-3.2 5-.4.6.6-.4c1.9-1.3 3.9-2.5 6-3.4.5-.2 1.1-.4 1.6-.6.3-.1.5-.1.8-.1l.4.1.4.1c1.1.3 2.3.6 3.4.9 2.3.7 4.5 1.3 6.8 1.9 2.3.6 4.5 1.2 6.8 1.8l.2.1v-.2c.3-1.2.4-2.4.6-3.6.1-.6.1-1.2.2-1.8 0-.3 0-.6.1-.9V69.6l.1-.1c0 .1 0 0 0 0zm-.1.4-.1.4-.1.9-.3 1.8c-.2 1.1-.4 2.2-.7 3.3-2.2-.7-4.4-1.3-6.6-2-2.3-.7-4.5-1.3-6.8-1.8-1.1-.3-2.3-.5-3.4-.8l-.4-.1-.4-.1c-.3 0-.6 0-.9.1-.6.2-1.1.4-1.6.6-1.9.9-3.7 1.9-5.5 3.1l2.9-4.2c1.1-1.6 2.2-3.2 3.2-4.7l3.6.3.7.1-.4-.7-.1-.1c2.3.6 4.6 1.1 6.9 1.6l3.9.6 3.7.5.5 2.5.2 1.2.2-1.2.3-2 .4 1.9.1.3.1-.3.3-.9c.1-.3.2-.6.3-.8v.5zm-2.9 4.7c0-.8-.1-1.7-.2-2.5-.1-.4-.1-.8-.2-1.2s-.2-.8-.4-1.2c.1.4.1.8.1 1.2 0 .4.1.8.2 1.2.1.8.3 1.7.5 2.5zm-1.2-1.7c-.2-.3-.3-.7-.5-1l-.5-1-1-1.9-.2-.5v.6c0 1.6 0 3.2.1 4.8l.3-.1c-.3-.4-.6-.9-.9-1.3l-.9-1.2c-.3-.4-.6-.8-1-1.2-.3-.4-.7-.8-1.1-1.1.3.4.7.8 1 1.2l.9 1.2c.3.4.6.8.9 1.3.3.4.6.9.8 1.3l.3.5v-.6c0-1.6-.1-3.2-.1-4.8l-.2.1 1.1 1.9.6.9c0 .3.2.6.4.9z" fill="#1b141c" stroke-width="none" opacity="1"></path></g></g></g><g id="svga-group-eyebrows-right-move" transform="matrix(1,0,0,1,0,0)"><g id="svga-group-eyebrows-right-rotate" transform="matrix(1,1.7453292519943295e-9,-1.7453292519943295e-9,1,1.2705996255135688e-7,-2.123193070246998e-7)"><g id="svga-group-eyebrows-right"><path id="SvgjsPath4764" d="M107.2 73.2s.9 3.1 2.3 5.5c0 0 14.9-6.1 16.8-6.5 1.9-.4 9 2 9 2l-8.2-6.9-3.6.8.4-.8-7.5 2.7-7.1 2v2.3l-.9-2.2v2.3l-1.2-1.2z" fill="#2a232b" stroke-width="none" opacity="1"></path><path id="SvgjsPath4765" d="m135.4 74.1-4-3.5c-1.3-1.2-2.7-2.3-4.1-3.5l-.1-.1h-.1l-3 .6.1-.2.4-.7-.8.3c-2.4.8-4.8 1.7-7.2 2.6l-1.8.6-1.8.6-3.7 1.1h-.2v1.5l-.6-1.3-.3-.7v.7l.1 2c-.1-.2-.3-.3-.4-.5-.2-.2-.3-.4-.5-.6l-.1-.1V73.2l.1.2.1.4c.1.2.2.5.2.7.2.5.3.9.5 1.4.3.9.8 1.9 1.2 2.8l.1.2.2-.1c2.1-.8 4.2-1.6 6.4-2.5 2.1-.8 4.2-1.7 6.3-2.5 1.1-.4 2.1-.8 3.2-1.2l.4-.1.4-.1c.3-.1.5-.1.8-.1.6 0 1.1.1 1.7.2 2.2.4 4.4 1.1 6.6 1.8l.6.2-.7-.4zm-8.3-2.1c-.3 0-.6 0-.9.1l-.4.1-.4.1c-1.1.3-2.2.7-3.2 1.1-2.2.8-4.3 1.6-6.4 2.4-2.1.8-4.1 1.7-6.1 2.6-.5-.8-.9-1.7-1.2-2.5-.2-.4-.4-.9-.6-1.4l-.3-.7-.1-.3-.1-.2v-.1c.2.2.3.4.4.6.2.2.3.4.5.7l.2.2V72.8l.6 1.5.4.9v-3.1l3.6-1c1.2-.3 2.5-.7 3.7-1 2.2-.8 4.3-1.5 6.5-2.3v.1l-.3.6.7-.2 3.5-.8c1.3 1.1 2.7 2.2 4 3.3l3.6 2.9c-2-.6-3.9-1.2-6-1.6-.6.1-1.1 0-1.7-.1zm-16 4.7c-.2-.7-.2-1.3-.2-2v-1c0-.3 0-.7.2-1 0 .3.1.7.1 1s.1.7.1 1c-.1.7-.1 1.4-.2 2zm.9-1.5c.1-.3.2-.6.3-.8l.3-.8.6-1.7.2-.4.1.4c.3 1.3.5 2.6.8 3.8h-.3l.6-1.2c.2-.4.4-.8.7-1.1.2-.4.5-.7.7-1.1s.5-.7.8-1c-.3.3-.5.7-.7 1.1-.2.4-.4.7-.7 1.1l-.6 1.2-.6 1.2-.2.4-.1-.4c-.3-1.3-.5-2.6-.8-3.8h.3l-.7 1.6-.4.8c0 .2-.1.4-.3.7z" fill="#1b141c" stroke-width="none" opacity="1"></path></g></g></g><g id="svga-group-beardwrap"><g id="svga-group-beard-single-move" transform="matrix(1,0,0,1,0,0)"><g id="svga-group-beard-single"></g></g></g><g id="svga-group-mustache-single-move" transform="matrix(1,0,0,1,0,0)"><g id="svga-group-mustache-single"></g></g><g id="svga-group-nose-single-move" transform="matrix(1,0,0,1,0,0)"><g id="svga-group-nose-single"><path id="SvgjsPath4946" d="M99.1 116.5c.67.12 4.53-3.31 4.53-3.31s2.06 1.59 3.62 1.43c1.56-.16 2.44-1.08 3-1.96.56-.88-.89-3.1-1.78-4.41-.9-1.31-3.54-5.22-4.09-7.02-1.07-3.45-3-4.76-4.92-4.64-1.92.12-4.04 1.52-4.6 3.44-.56 1.92-.72 4.28-1.8 5.76s-3.32 4-3.56 4.72c-.24.72-.11 2.8 1.24 3.56 1.73.97 4.3-.51 4.3-.51s3.18 2.78 4.06 2.94z" fill="#cb8d60" stroke-width="none" opacity="1" stroke="none"></path><path id="SvgjsPath4947" d="M110.28 110.87c-.42-1.01-1.08-1.86-1.81-2.61.57.88 1.08 1.8 1.39 2.76.15.48.24.97.16 1.42-.05.23-.12.41-.26.6-.13.2-.29.39-.47.54-.69.66-1.7.91-2.68.78-.49-.06-.99-.2-1.46-.39-.45-.16-.86-.39-1.29-.62.38-.56.72-1.15 1.02-1.76-.97.91-1.89 1.83-2.87 2.64-.49.4-.98.8-1.51 1.09-.51.3-1.07.55-1.51.52-.12.01-.21-.02-.31-.04-.09-.05-.17-.06-.3-.16-.24-.15-.49-.36-.74-.55-.5-.39-.99-.82-1.49-1.23-.99-.84-1.99-1.69-3.07-2.48a21.8 21.8 0 0 0 1.68 2.24c-.5.22-1.01.41-1.53.52-.64.12-1.3.15-1.84-.1-1.09-.53-1.72-1.83-1.54-2.94.05-.28.13-.5.3-.74.17-.26.36-.53.56-.79.4-.52.82-1.02 1.26-1.52l.66-.74c.26-.28.46-.56.67-.84.41-.57.77-1.18 1.07-1.83.3-.65.48-1.4.59-2.06.12-.68.22-1.35.3-2.02.15-1.35.27-2.69.31-4.04.1-2.7.03-5.42-.51-8.07.05 2.69-.14 5.35-.4 8-.15 1.32-.29 2.65-.5 3.96-.1.66-.2 1.31-.32 1.96-.12.66-.27 1.22-.54 1.79a9.34 9.34 0 0 1-.94 1.65c-.18.26-.37.53-.57.74-.23.26-.45.51-.66.78-.43.53-.85 1.07-1.24 1.63-.2.28-.39.57-.57.88-.2.33-.34.76-.37 1.14-.13 1.57.85 3.05 2.25 3.55.73.23 1.47.11 2.12-.11.54-.19 1.03-.46 1.49-.77.24.28.47.57.71.84.44.5.91.96 1.41 1.42.25.23.51.44.82.65.13.1.36.22.57.3.22.06.44.12.66.11.88 0 1.55-.38 2.14-.76.58-.41 1.1-.86 1.55-1.37.44-.48.84-.99 1.21-1.53.75.66 1.64 1.25 2.68 1.45.54.12 1.11.12 1.66 0 .55-.14 1.07-.41 1.49-.8.21-.19.39-.42.54-.65.17-.23.29-.54.32-.84.06-.55-.08-1.1-.29-1.6z" fill="#9d521b" stroke-width="none" opacity="1" stroke="none"></path></g></g><g id="svga-group-hair-front"><path id="SvgjsPath10183" d="M98.1 20.4s-7.2-5.9-16.9-6.4l1.7 3s-14.6-.6-27.6 11.1l3.6 2.2s-9.5 8.5-11 21c-1.4 12.5-.5 24.1-.5 24.1s4.5-1.4 5.8-2.7l1.6-4.4 3.3 10.3 5.9 5.5s-2-8.5-1.7-14.6c.3-6.1.6-7.8.6-7.8l.6 4.5s1.2 4.1 5 5.5c0 0-1.7-12.1.5-17.7 0 0 0 8.8 2.7 11.6 0 0 2.3-1.6 3.1-3s1.7-5.2 2.5-7.7 3.1-9.4 5.5-11.7c2.3-2.3 5-5.2 5-5.2s6.7 2 9.4 5.6c0 0 4.1-2.5 7.2-3.6 3.1-1.1 7.4-2.3 7.4-2.3s5.2 7.4 6.6 12.1 2.7 11 2.7 12.5.2 3 .2 3 2.5-1.1 3.8-2.7c0 0 3.4-.5 5.2-2 1.7-1.6 3.9-4.4 3.4-13.6 0 0 1.2.6 2 5.8s1.7 14.2.6 19.1c0 0 1.4-.3 3.1-1.7 0 0-1.2 9.7 0 13.6 0 0 2.5-4.5 4.2-6.7s3.1-6.3 3.1-6.3l1.1-5.2 4.4-.2s-.2-7.8-1.1-11.1c-.9-3.3-2.8-13.8-7.1-19.9s-11.9-10.3-13-11-14.9-7.2-27.7-3.1c0 0 6.3-5 15.8-3s10.8 5.2 10.8 5.2l2.2.9 1.6-.5s-4.5-6.7-12.8-8.3-17.3.4-22.8 5.8z" fill="#2a232b" stroke-width="none" opacity="1"></path><path id="SvgjsPath10184" d="M87.3 38.1c-3.6 2.7-6.3 6.4-8.2 10.5-2.1 4.6-2.3 9.7-4.8 13.8 1-4.6 1.8-9.2 3.1-13.7 1.4-4.9 2.7-11.2 6.8-14.6.3-.2-.1-.6-.3-.5-4 1.9-5.1 7.6-6.2 11.4-1.8 5.9-3.4 12.1-3.8 18.2-.5.7-1.1 1.4-1.9 2.1v.1c-.5-1.9-1.1-3.8-1.4-5.7-.4-2.5-.5-4.9-.7-7.3.2-1.5.5-3 .9-4.5 0-.2-.2-.3-.3-.1-.5 1.4-.8 2.9-1.2 4.3V52.4c-.8 3.4-1.2 6.9-1.3 10.5 0 1 .7 7.9.4 8-1 .5-3.7-3.4-4.3-4.3-.2-.2-.5 0-.3.2 1.3 2.6 2.8 4.3 5.1 6.2.4.3.8 0 .8-.4-.8-5.2-.8-10.2-.3-15.3.3 3.2 1.2 6.5 2.6 9.2.1.2.4.1.4-.2 0-.1-.1-.2-.1-.3.1.1.2.1.3 0 3.7-2.5 4.6-6.5 5.6-10.7 1.7-6.8 4.9-11.8 9.8-16.7-.1-.3-.4-.7-.7-.5zm-4.6-21.3c.2.2.6 0 .4-.3-.4-.7-.8-1.3-1.3-1.9 6.1.8 11.1 3.1 16.3 6.3.3.2.6-.2.4-.5-4.9-4.4-11.5-6.4-17.9-7-.5-.1-.6.6-.4.9.8.9 1.5 1.7 2.5 2.5zM54.6 29.2c1.1.4 2.2.6 3.4.8.4.1.6-.5.2-.7-3.9-1.4.3-3.2 2.4-4.6 2-1.3 4.1-2.5 6.2-3.5 4.9-2.2 9.9-3.1 15.1-4 .3 0 .2-.5-.1-.5-10.2-.1-19.9 5.1-27.5 11.6-.2.3-.1.8.3.9zm8.2 36.6c.1-.2.3-.4.4-.6l.3.9c.1.4.7.2.6-.2-.3-1.7-.6-3.4-.5-5.2 0-.4-.7-.5-.8-.1-1.3 7.6-1.1 15.3 1.1 22.7-.7-.8-1.4-1.4-2.2-2.2-.9-.9-1.8-1.9-2.9-2.7-.1-.1-.3-.1-.4 0-1-3.5-2.2-6.9-3.3-10.4-.1-.3-.5-.3-.6 0-.4 1.4-.9 2.8-1.2 4.2-.1 0-.3 0-.4.1-1.3 1.2-4.3 3.9-5.3 1.9-.3-.7-.1-2.3-.2-3.1-.1-2.3-.2-4.6-.2-6.9 0-5.4.5-10.8 1.8-16C52.7 34 62.6 26.1 76.1 21.6c.2-.1.1-.4-.1-.3-12.4 2.5-22.5 11-26.7 22.9-3.6 10.1-3.2 21-2.7 31.5 0 .3.3.5.6.5 2.5-.5 4.3-1.4 6.2-3.1.2-.2.2-.4.1-.5.4-1.1.8-2.2 1.1-3.3 1 3.3 1.9 6.7 3 10 .1.3.5.3.7.1.7.9 1.6 1.7 2.4 2.5.9.9 1.8 1.9 2.8 2.7.1.1.3.1.4 0 .1.2.4.1.4-.2-1.2-5-2.1-10-2-15.2.3-1.1.4-2.3.5-3.4zm69.4-42.1c.6 0 1.2-.1 1.7-.1s.7-.6.4-.9c-9.4-10.7-25.2-12.2-36-2.6-.2.1.1.4.2.3 5.5-3.9 11.9-6.3 18.7-5.7 3.5.3 6.9 1.5 9.9 3.3 1.5.9 3.4 1.9 4.4 3.4.9 1.4 1.1 1.4-.1 1.5-.1-.1-.2-.1-.3-.2-7.6-7.3-19.4-8.2-28.2-2.4-.2.1 0 .4.2.3 8.6-4.7 17.3-4.3 25 .9-7.7-2.9-16.7-2.8-24.5-1-.2.1-.1.4.1.4 9.5-1.7 17.5-.3 26.4 2.4-.1.2.1.6.4.6h1.3c-.1.1-.1.2 0 .3 8.1 5.1 13.5 11.9 16.5 21 1.6 5 2.5 10.1 3.1 15.3.2 1.4.7 3.1.1 4.3.2-.5-2.4.8-3.1 1.2-.2.2 0 .7.3.6h3.7c.3.1.7-.2.7-.5-1.7-15.8-4.7-35.3-20.9-42.4zm16.1 42.2c1.1-6.7.4-14-2.7-19.9-.1-.2-.5-.1-.4.2 2.3 8.8 3.2 16.4 1.1 25.3-2.5 3.6-4.5 7.6-6.7 11.3-.5-4.2-.3-8.2.3-12.4 3.4-2.8 5.8-6.5 5.9-11.2 0-.4-.6-.5-.6-.1-.4 2.2-1.1 4.4-2.2 6.3-.2.3-1.5 1.9-2.8 3.4-.1-.2-.5-.3-.6 0-.1.3-.1.5-.2.8-1.1 1.1-2.1 1.9-2.4 1.6-.6-.6.1-3.1.1-3.9.2-2.3.2-4.5.1-6.8-.3-8.1-2.4-16.2-6.4-23.2-.2-.3-.5 0-.4.2.1.2.1.4.2.5v.1c1.3 4.3 2.6 8.4 2.6 12.9 0 2.8-.2 6.5-2.3 8.6-1.4 1.4-3.4 2-5.4 2.6 2.1-3.4 2.1-8 1.2-12.1 0-.2-.2-.2-.3-.2 0-6.3-4.8-13.8-10.4-16.6-.1 0-.2 0-.3.1-6.6 1.6-13.2 5.1-18.1 9.9-2.4-2.4-5.7-4.7-9.1-5.2-.5-.1-.6.5-.2.7 3.4 1.4 6.3 2.7 8.9 5.2.3.3.6 0 .7-.2 2.3-1.4 4.8-2.5 7.3-3.4 1.2-.4 2.4-.8 3.7-1.2.8-.3 2.3-.9 3.1-.9v.2c5 8.6 8.4 16.7 8.8 26.8 0 .4.4.6.8.4 1.5-.7 2.7-1.7 3.5-2.9 4.5-.9 7.8-2.5 8.7-7.5.4-2.4.5-5 .3-7.6 2.2 7.9 2.8 16 1.3 24.5-.1.5.4.8.8.6 1-.5 2-1.1 2.9-1.8-.9 4.4-.8 8.9-.1 13.3.1.4.7.4.9.1 2.6-4.4 5.5-8.7 7.6-13.4.1-.2 0-.4-.2-.5.3-1.4.7-3 1-4.6 0 0 .1 0 .2-.1l.1-.1c-.2.1-.3.1-.3.2zm-26.4-2c-1.1-1.4-1.1-7-1.6-8.8-1.5-6-4-12.1-8-16.9.2-.3.2-.8-.3-.9-.8-.1-.9 0-1.6.2-1.7.5-3.5 1.3-5.2 1.9-1.3.5-2.6 1.1-3.8 1.7 4.4-3 8.9-5.1 14.4-6.7.1 0 .2-.1.2-.2 2.4 2.1 4.6 4 6.3 6.8 1.8 2.9 2.5 6 3.3 9.3 0 .1.1.2.3.2 0 2.2.3 4.5 0 6.7-.1.6-.9 3.6-1.8 5.5h-.1c-.2 0-.2.2-.1.3-.6 1.1-1.4 1.8-2 .9zM86.2 33.6c-.2-.1-.3.2-.1.3 3.2 1.3 5.7 3.3 8.3 5.4.2.2.6-.1.4-.3-2.1-2.8-5.4-4.5-8.6-5.4zm-26.6 4.8c-5 6.1-7.4 15.2-7.2 23.1-.7.2-1.4.5-2 .9.5-9.8 3.6-18.4 9-26.5.1-.2-.2-.4-.3-.2-5.9 7.8-8.9 17.1-9.4 26.8 0 .3.3.4.5.3.1.1.2.2.3.1.7-.2 1.5-.5 2.1-.8.2.1.4 0 .4-.2v-.2c.7-8.7 3.1-15.2 6.9-23 .1-.3-.1-.5-.3-.3z" fill="#1b141c" stroke-width="none" opacity="1"></path></g><g id="svga-group-glasses-single-move" transform="matrix(1,0,0,1,0,0)"><g id="svga-group-glasses-single"><path id="SvgjsPath8795" d="M73.07 77.26c-2.72.89-6.12 4.57-5.51 11.83.61 7.26 4.71 10.02 8.54 11.43 3.83 1.41 9.68 1.28 14.05-2.69 4.37-3.97 5.38-8.54 5.04-11.43-.34-2.89-2.89-7.39-7.06-8.94-4.17-1.55-8.47-2.35-15.06-.2z" fill="url(#SvgjsLinearGradient8796)" opacity="1"></path><path id="SvgjsPath8801" d="M127.66 77.26c2.72.89 6.12 4.57 5.51 11.83s-4.71 10.02-8.54 11.43c-3.83 1.41-9.68 1.28-14.05-2.69-4.37-3.97-5.38-8.54-5.04-11.43.34-2.89 2.89-7.39 7.06-8.94 4.17-1.55 8.47-2.35 15.06-.2z" fill="url(#SvgjsLinearGradient8802)" opacity="1"></path><path id="SvgjsPath8807" d="M119.66 102.16c-4.54 0-9.01-2.42-11.97-6.46-3.39-4.64-4.14-9.63-4.23-10.3.31-.21 1.53-1.13 1.35-2.31-.18-1.2-3.09-1.29-3.97-1.29h-.96c-.88 0-3.79.09-3.97 1.29-.18 1.19 1.04 2.1 1.35 2.31-.09.67-.84 5.66-4.23 10.3-2.96 4.05-7.43 6.46-11.97 6.46-2.19 0-4.42-.54-6.62-1.6-7.34-3.54-7.69-9.66-7.92-13.71-.02-.36-.04-.71-.06-1.03-.26-3.68-2.52-4.06-3.11-4.09V78h.55c2.63 0 5.06-.7 7.63-1.44 2.8-.81 5.69-1.64 9.1-1.64.53 0 1.06.02 1.62.06 4.85.38 7.27 1.96 8.88 3.01.52.34.97.63 1.39.82.65.29 1.53.42 2.77.42.93 0 1.93-.08 2.89-.15.64-.05 1.27-.1 1.85-.12h.68c.57.02 1.2.07 1.84.12.97.07 1.96.15 2.89.15 1.24 0 2.12-.13 2.77-.42.43-.19.87-.48 1.39-.82 1.6-1.05 4.03-2.63 8.88-3.01.55-.04 1.09-.06 1.62-.06 3.41 0 6.31.84 9.1 1.64 2.57.74 5 1.44 7.63 1.44.18 0 .36 0 .54-.01v3.73c-.62.04-2.84.45-3.11 4.09-.02.33-.04.67-.06 1.04-.23 4.05-.58 10.17-7.92 13.71-2.19 1.06-4.42 1.6-6.62 1.6zm1-25.75c-1.69 0-3.45.25-5.23.75-3.85 1.07-7.2 3.91-8.54 7.22-1.21 2.98-.83 6.29 1.09 9.57 2.57 4.38 6.88 6.89 11.83 6.89 3.2 0 6.33-1.07 8.58-2.94 5.16-4.29 5.49-12.86 2.32-17.1-2.05-2.75-5.81-4.39-10.05-4.39zm-40.59 0c-4.24 0-8 1.64-10.05 4.38-3.17 4.24-2.84 12.81 2.32 17.1 2.25 1.87 5.37 2.94 8.58 2.94 4.95 0 9.26-2.51 11.83-6.89 1.92-3.27 2.3-6.58 1.09-9.57-1.34-3.31-4.69-6.14-8.54-7.22-1.78-.48-3.54-.74-5.23-.74z" fill="#26120b" stroke-width="none" opacity="1"></path><path id="SvgjsPath8808" d="M120.1 75.04c3.4 0 6.28.83 9.07 1.64 2.58.75 5.01 1.45 7.66 1.45.14 0 .28 0 .42-.01v3.48c-.75.08-2.85.64-3.11 4.2-.02.33-.04.67-.06 1.04-.23 4.02-.57 10.1-7.85 13.61-2.18 1.05-4.39 1.58-6.57 1.58-4.5 0-8.93-2.4-11.87-6.41-3.27-4.47-4.07-9.27-4.2-10.17.4-.29 1.52-1.2 1.34-2.39-.19-1.26-2.93-1.39-4.09-1.39H99.89c-1.17 0-3.9.14-4.09 1.39-.18 1.19.94 2.1 1.34 2.39-.13.89-.93 5.69-4.2 10.17-2.93 4.01-7.37 6.41-11.87 6.41-2.18 0-4.38-.53-6.57-1.58-7.28-3.51-7.62-9.59-7.85-13.61l-.06-1.04c-.25-3.54-2.33-4.11-3.11-4.2v-3.49c.14 0 .28.01.42.01 2.65 0 5.08-.7 7.66-1.45 2.79-.81 5.67-1.64 9.07-1.64.53 0 1.08.02 1.61.06 4.82.38 7.23 1.95 8.82 2.99.52.34.97.64 1.41.83.67.3 1.56.43 2.82.43.94 0 1.94-.08 2.9-.15.65-.05 1.27-.1 1.83-.12h.68c.58.02 1.19.07 1.84.12.97.07 1.97.15 2.9.15 1.25 0 2.15-.14 2.82-.43.44-.19.89-.49 1.41-.83 1.59-1.04 4-2.61 8.82-2.99.54-.03 1.08-.05 1.61-.05m-.29 25.92c3.23 0 6.39-1.08 8.66-2.97 5.21-4.33 5.55-12.99 2.34-17.27-2.08-2.78-5.87-4.43-10.15-4.43-1.7 0-3.47.25-5.26.75-3.89 1.08-7.27 3.94-8.62 7.29-1.22 3.02-.84 6.37 1.1 9.68 2.58 4.42 6.94 6.95 11.93 6.95m-38.89 0c5 0 9.35-2.53 11.94-6.95 1.94-3.31 2.32-6.66 1.1-9.68-1.35-3.35-4.74-6.21-8.62-7.29-1.79-.5-3.56-.75-5.26-.75-4.28 0-8.07 1.66-10.15 4.43-3.2 4.28-2.87 12.94 2.34 17.27 2.27 1.89 5.42 2.97 8.65 2.97m39.18-26.17c-.53 0-1.07.02-1.63.06-6.41.5-8.56 3.06-10.31 3.84-.71.31-1.66.41-2.71.41-1.55 0-3.29-.21-4.74-.27h-.69c-1.44.06-3.19.27-4.74.27-1.05 0-2.01-.1-2.71-.41-1.75-.78-3.9-3.34-10.31-3.84-.56-.04-1.1-.06-1.63-.06-6.56 0-11.26 3.09-16.73 3.09-.22 0-.44-.01-.67-.02v3.98h.02c.23 0 2.81.09 3.09 3.98.29 4.08 0 10.97 8.06 14.85 2.33 1.12 4.57 1.61 6.67 1.61 5.16 0 9.45-2.93 12.07-6.51 3.69-5.05 4.26-10.43 4.26-10.43s-1.55-.97-1.36-2.23c.17-1.12 3.17-1.18 3.85-1.18h.95c.67 0 3.67.06 3.85 1.18.19 1.26-1.36 2.23-1.36 2.23s.58 5.39 4.26 10.43c2.62 3.59 6.91 6.51 12.07 6.51 2.1 0 4.34-.49 6.67-1.61 8.06-3.88 7.77-10.77 8.06-14.85.28-3.89 2.86-3.98 3.09-3.98h.02v-3.98c-.22.01-.45.02-.67.02-5.47 0-10.16-3.09-16.73-3.09zm-.29 25.92c-4.33 0-8.88-1.98-11.72-6.83-4.95-8.45 1.46-14.95 7.38-16.6 1.84-.51 3.58-.74 5.19-.74 4.53 0 8.06 1.81 9.95 4.33 3.16 4.23 2.84 12.66-2.3 16.93-2.19 1.82-5.29 2.91-8.5 2.91zm-38.89 0c-3.21 0-6.31-1.09-8.5-2.91-5.14-4.27-5.46-12.7-2.3-16.93 1.88-2.52 5.42-4.33 9.95-4.33 1.62 0 3.36.23 5.19.74 5.92 1.65 12.33 8.15 7.38 16.6-2.84 4.85-7.39 6.83-11.72 6.83z" fill="#070201" stroke-width="none" opacity="1"></path></g></g></g></g></g><rect id="svga-credit-rect" width="200" height="15" x="0" y="185" fill="#ecf0f1" opacity="0.5" style="display: none;"></rect><text id="svga-credit-text" font-family="Avenir Next, Roboto, Helvetica, Arial, sans-serif" font-size="10px" text-anchor="start" font-weight="400" size="10px" anchor="start" weight="400" fill="#333333" x="33.40447998046875" y="182.60824704170227" style="display: none;"><tspan id="SvgjsTspan4756" dy="13" x="33.40447998046875">Created on AvatarMaker.com</tspan></text></g><defs id="SvgjsDefs4703"><linearGradient id="SvgjsLinearGradient8481" x1="80.8483" y1="78.7842" x2="80.8483" y2="101.3287" gradientUnits="userSpaceOnUse" class="svga-on-canvas-glasses-gradient-single-0-null"><stop id="SvgjsStop8482" stop-opacity="1" stop-color="#9bc2cf" offset="0" ></stop><stop id="SvgjsStop8483" stop-opacity="0" stop-color="#6086c4" offset="1" ></stop></linearGradient><linearGradient id="SvgjsLinearGradient8485" x1="-19.4949" y1="78.7842" x2="-19.4949" y2="101.3287" gradientTransform="matrix(-1 0 0 1 100 0)" gradientUnits="userSpaceOnUse" class="svga-on-canvas-glasses-gradient-single-1-null"><stop id="SvgjsStop8486" stop-opacity="1" stop-color="#9bc2cf" offset="0" ></stop><stop id="SvgjsStop8487" stop-opacity="0" stop-color="#6086c4" offset="1" ></stop></linearGradient><linearGradient id="SvgjsLinearGradient8529" x1="81.3705" y1="75.9478" x2="81.3705" y2="101.3349" gradientUnits="userSpaceOnUse" class="svga-on-canvas-glasses-gradient-single-0-null"><stop id="SvgjsStop8530" stop-opacity="1" stop-color="#9ab4d3" offset="0" ></stop><stop id="SvgjsStop8531" stop-opacity="0.7593" stop-color="#93aed1" offset="0.2407" ></stop><stop id="SvgjsStop8532" stop-opacity="0.4009" stop-color="#7e9ecc" offset="0.5991" ></stop><stop id="SvgjsStop8533" stop-opacity="0" stop-color="#6086c4" offset="1" ></stop></linearGradient><linearGradient id="SvgjsLinearGradient8535" x1="-19.3641" y1="75.9478" x2="-19.3641" y2="101.3349" gradientTransform="matrix(-1 0 0 1 100 0)" gradientUnits="userSpaceOnUse" class="svga-on-canvas-glasses-gradient-single-1-null"><stop id="SvgjsStop8536" stop-opacity="1" stop-color="#9ab4d3" offset="0" ></stop><stop id="SvgjsStop8537" stop-opacity="0.7593" stop-color="#93aed1" offset="0.2407" ></stop><stop id="SvgjsStop8538" stop-opacity="0.4009" stop-color="#7e9ecc" offset="0.5991" ></stop><stop id="SvgjsStop8539" stop-opacity="0" stop-color="#6086c4" offset="1" ></stop></linearGradient><linearGradient id="SvgjsLinearGradient8593" x1="79.4739" y1="121.3709" x2="79.4739" y2="101.6175" gradientTransform="matrix(1 0 0 -1 0 202)" gradientUnits="userSpaceOnUse" class="svga-on-canvas-glasses-gradient-single-0-null"><stop id="SvgjsStop8594" stop-opacity="1" stop-color="#bfeaf2" offset="0" ></stop><stop id="SvgjsStop8595" stop-opacity="0.649" stop-color="#a1cae3" offset="0.351" ></stop><stop id="SvgjsStop8596" stop-opacity="0" stop-color="#6086c4" offset="1" ></stop></linearGradient><linearGradient id="SvgjsLinearGradient8598" x1="-1738.6592" y1="121.1959" x2="-1738.6592" y2="101.7599" gradientTransform="matrix(-1 0 0 -1 -1618 202)" gradientUnits="userSpaceOnUse" class="svga-on-canvas-glasses-gradient-single-1-null"><stop id="SvgjsStop8599" stop-opacity="1" stop-color="#bfeaf2" offset="0" ></stop><stop id="SvgjsStop8600" stop-opacity="0.649" stop-color="#a1cae3" offset="0.351" ></stop><stop id="SvgjsStop8601" stop-opacity="0" stop-color="#6086c4" offset="1" ></stop></linearGradient><linearGradient id="SvgjsLinearGradient8652" x1="77.739" y1="127.391" x2="77.739" y2="98.3325" gradientTransform="matrix(1 0 0 -1 0 202)" gradientUnits="userSpaceOnUse" class="svga-on-canvas-glasses-gradient-single-0-null"><stop id="SvgjsStop8653" stop-opacity="1" stop-color="#899ba1" offset="0" ></stop><stop id="SvgjsStop8654" stop-opacity="0.6554" stop-color="#7490b3" offset="0.3446" ></stop><stop id="SvgjsStop8655" stop-opacity="0.2966" stop-color="#6589c0" offset="0.7034" ></stop><stop id="SvgjsStop8656" stop-opacity="0" stop-color="#6086c4" offset="1" ></stop></linearGradient><linearGradient id="SvgjsLinearGradient8658" x1="-1741.6041" y1="126.501" x2="-1741.6041" y2="98.3275" gradientTransform="matrix(-1 0 0 -1 -1618 202)" gradientUnits="userSpaceOnUse" class="svga-on-canvas-glasses-gradient-single-1-null"><stop id="SvgjsStop8659" stop-opacity="1" stop-color="#899ba1" offset="0" ></stop><stop id="SvgjsStop8660" stop-opacity="0.6554" stop-color="#7490b3" offset="0.3446" ></stop><stop id="SvgjsStop8661" stop-opacity="0.2966" stop-color="#6589c0" offset="0.7034" ></stop><stop id="SvgjsStop8662" stop-opacity="0" stop-color="#6086c4" offset="1" ></stop></linearGradient><linearGradient id="SvgjsLinearGradient8796" x1="81.3705" y1="75.9478" x2="81.3705" y2="101.3349" gradientUnits="userSpaceOnUse" class="svga-on-canvas-glasses-gradient-single-0-null"><stop id="SvgjsStop8797" stop-opacity="1" stop-color="#9ab4d3" offset="0" ></stop><stop id="SvgjsStop8798" stop-opacity="0.7593" stop-color="#93aed1" offset="0.2407" ></stop><stop id="SvgjsStop8799" stop-opacity="0.4009" stop-color="#7e9ecc" offset="0.5991" ></stop><stop id="SvgjsStop8800" stop-opacity="0" stop-color="#6086c4" offset="1" ></stop></linearGradient><linearGradient id="SvgjsLinearGradient8802" x1="-19.3641" y1="75.9478" x2="-19.3641" y2="101.3349" gradientTransform="matrix(-1 0 0 1 100 0)" gradientUnits="userSpaceOnUse" class="svga-on-canvas-glasses-gradient-single-1-null"><stop id="SvgjsStop8803" stop-opacity="1" stop-color="#9ab4d3" offset="0" ></stop><stop id="SvgjsStop8804" stop-opacity="0.7593" stop-color="#93aed1" offset="0.2407" ></stop><stop id="SvgjsStop8805" stop-opacity="0.4009" stop-color="#7e9ecc" offset="0.5991" ></stop><stop id="SvgjsStop8806" stop-opacity="0" stop-color="#6086c4" offset="1" ></stop></linearGradient></defs></svg>