<?xml version="1.0" standalone="no"?>
<!DOCTYPE svg PUBLIC "-//W3C//DTD SVG 20010904//EN"
 "http://www.w3.org/TR/2001/REC-SVG-20010904/DTD/svg10.dtd">
<svg version="1.0" xmlns="http://www.w3.org/2000/svg"
 width="200.000000pt" height="200.000000pt" viewBox="0 0 200.000000 200.000000"
 preserveAspectRatio="xMidYMid meet">

<g transform="translate(0.000000,200.000000) scale(0.100000,-0.100000)"
fill="#000000" stroke="none">
<path d="M810 1845 c11 -13 8 -15 -17 -15 -51 0 -127 -28 -194 -71 -59 -39
-62 -43 -42 -52 21 -9 21 -10 -14 -58 -53 -75 -75 -154 -76 -286 -1 -61 1
-114 4 -117 12 -12 60 14 69 36 5 14 9 17 10 8 0 -8 3 -58 6 -110 6 -114 20
-174 38 -167 10 4 15 -7 18 -37 3 -24 31 -97 63 -162 l58 -119 -6 -84 c-5 -77
-3 -86 18 -109 13 -14 32 -59 45 -109 26 -97 38 -106 16 -12 -8 35 -13 65 -11
67 2 2 22 -10 46 -27 23 -17 47 -31 53 -31 6 0 23 -15 38 -34 15 -18 39 -36
53 -38 25 -5 25 -4 -10 25 l-36 30 57 23 c79 32 175 130 228 232 9 17 20 32
24 32 4 0 13 -64 20 -141 12 -150 9 -171 -37 -223 -17 -20 -105 -78 -134 -89
-9 -3 -27 -30 -40 -58 l-23 -52 -32 50 c-35 55 -65 73 -118 73 -42 0 -68 26
-125 121 -31 51 -39 75 -39 113 0 39 -3 47 -17 44 -9 -2 -29 -23 -45 -48 -15
-25 -36 -57 -45 -72 -14 -21 -43 -36 -133 -67 -63 -22 -154 -52 -202 -65 -48
-14 -96 -31 -107 -38 -26 -16 -37 -52 -45 -140 l-7 -68 877 0 876 0 -7 52
c-11 89 -15 105 -38 126 -23 22 -172 87 -325 142 -99 35 -150 74 -173 135 -7
17 -21 39 -31 51 -14 16 -20 43 -25 107 -6 85 -5 87 31 157 42 79 86 200 87
239 0 14 3 20 6 14 7 -18 20 -16 28 5 4 9 11 59 16 109 4 51 15 106 24 123 8
16 15 40 15 55 0 20 5 25 25 25 25 0 26 1 19 53 -8 71 -40 190 -63 236 -20 38
-96 121 -112 121 -5 0 -9 6 -9 14 0 19 -53 63 -97 81 -67 28 -173 16 -234 -26
-25 -17 -27 -17 -84 12 -63 32 -137 41 -115 14z m396 -26 c54 -14 69 -30 16
-18 -20 5 -62 9 -92 10 -43 1 -49 3 -30 9 36 12 56 11 106 -1z m-170 -234 c34
14 68 25 74 25 17 0 69 -119 81 -186 7 -32 13 -65 15 -71 2 -9 18 -5 52 12 58
29 72 44 82 88 6 30 7 28 14 -25 5 -31 5 -79 1 -107 l-7 -51 -36 30 c-43 35
-68 37 -140 10 -29 -11 -61 -20 -72 -20 -20 0 -22 -4 -24 -50 -1 -24 -5 -25
-61 -27 -33 -1 -70 0 -82 2 -19 4 -20 8 -11 33 12 32 3 86 -12 77 -9 -5 -91 7
-141 21 -28 8 37 181 89 236 l26 28 44 -25 45 -25 63 25z m-327 -243 c1 -7 -3
-10 -9 -7 -5 3 -10 18 -9 33 0 24 1 25 9 7 5 -11 9 -26 9 -33z m-49 -82 c-13
-24 -3 -26 29 -4 25 18 78 21 93 6 6 -6 -6 -12 -29 -16 -21 -4 -57 -10 -80
-15 l-43 -8 0 55 0 55 21 -26 c16 -21 18 -31 9 -47z m722 -9 c-4 -31 -5 -31
-127 -3 l-40 9 29 8 c16 4 48 3 72 -2 24 -6 41 -7 39 -2 -5 6 9 16 26 18 3 1
4 -12 1 -28z m-475 -64 c40 -44 43 -80 10 -128 -28 -41 -60 -59 -109 -59 -49
0 -81 16 -101 50 -26 43 -20 54 14 26 26 -22 40 -26 87 -25 l57 2 -62 7 c-65
7 -88 19 -98 51 -4 11 -10 17 -15 14 -12 -7 6 54 22 72 20 25 50 33 107 29 48
-3 58 -7 88 -39z m369 24 c27 -16 33 -28 39 -70 12 -88 -35 -141 -124 -141
-37 0 -49 5 -82 39 -32 32 -39 46 -39 78 0 21 7 49 16 62 35 50 134 66 190 32z
m-676 -39 c0 -15 -2 -15 -10 -2 -13 20 -13 33 0 25 6 -3 10 -14 10 -23z m433
-17 c-7 -61 62 -157 125 -175 85 -23 175 37 187 126 8 62 12 74 24 74 13 0 18
-60 10 -147 -20 -223 -241 -532 -382 -533 -41 0 -116 42 -164 92 -94 97 -194
289 -214 406 -14 85 -12 179 3 164 15 -15 31 -16 22 0 -4 7 -3 8 4 4 7 -4 12
-21 12 -37 0 -139 169 -206 259 -103 l31 35 -6 -43 c-6 -41 -19 -72 -47 -110
-15 -22 1 -52 29 -55 15 -2 14 -1 -3 7 -29 12 -29 21 1 65 17 24 27 57 32 103
3 37 11 78 16 91 5 15 5 28 -2 36 -13 16 3 25 40 22 19 -1 24 -7 23 -22z
m-434 -68 c1 -5 -3 -5 -9 -2 -5 3 -10 16 -9 28 0 21 1 21 9 2 5 -11 9 -24 9
-28z m810 -1 c-9 -8 -10 -7 -5 7 3 10 7 24 7 30 1 7 3 4 6 -7 3 -10 -1 -23 -8
-30z"/>
<path d="M847 1165 c12 -9 29 -26 38 -38 8 -12 15 -17 15 -11 0 16 -47 64 -62
64 -7 0 -3 -7 9 -15z"/>
<path d="M761 1157 c-35 -35 16 -101 63 -79 28 12 38 45 22 67 -14 20 -69 28
-85 12z m39 -18 c0 -5 -7 -9 -15 -9 -15 0 -20 12 -9 23 8 8 24 -1 24 -14z"/>
<path d="M1174 1165 c-38 -16 -74 -60 -73 -89 1 -15 3 -12 10 10 5 17 15 37
23 43 11 9 15 6 20 -14 9 -36 54 -45 78 -16 13 16 15 28 8 40 -18 34 -33 40
-66 26z m21 -25 c3 -5 -1 -10 -9 -10 -9 0 -16 5 -16 10 0 6 4 10 9 10 6 0 13
-4 16 -10z"/>
<path d="M1258 1173 c6 -2 18 -2 25 0 6 3 1 5 -13 5 -14 0 -19 -2 -12 -5z"/>
<path d="M1296 1122 c-10 -30 -31 -44 -89 -58 -42 -10 -46 -12 -21 -13 50 -2
93 19 110 51 9 16 13 32 11 35 -3 2 -8 -4 -11 -15z"/>
<path d="M1093 890 c2 -27 -30 -41 -44 -19 -6 11 -14 8 -33 -10 -25 -24 -26
-24 -46 -6 -12 11 -20 13 -20 6 0 -6 11 -17 25 -23 20 -9 28 -8 42 5 11 9 28
13 44 10 33 -6 55 18 40 44 -9 16 -10 15 -8 -7z"/>
<path d="M935 770 c-17 -17 -40 -30 -54 -31 -23 0 -24 -1 -6 -8 24 -10 273
-12 279 -3 2 4 -9 7 -26 8 -20 1 -38 11 -57 35 -24 29 -31 32 -44 21 -12 -10
-21 -11 -36 -3 -26 14 -23 15 -56 -19z"/>
<path d="M1081 680 c-29 -25 -98 -27 -144 -5 l-32 16 24 -21 c35 -30 121 -28
158 5 33 29 29 33 -6 5z"/>
<path d="M1241 534 c0 -11 3 -14 6 -6 3 7 2 16 -1 19 -3 4 -6 -2 -5 -13z"/>
<path d="M1231 484 c0 -11 3 -14 6 -6 3 7 2 16 -1 19 -3 4 -6 -2 -5 -13z"/>
<path d="M1201 383 c-31 -111 -33 -123 -13 -78 21 44 47 144 40 151 -3 2 -15
-31 -27 -73z"/>
</g>
</svg>
